<?xml version="1.0" encoding="UTF-8" standalone="no"?>
<!-- Created with Inkscape (http://www.inkscape.org/) -->

<svg
   width="14.403316in"
   height="13.347561in"
   viewBox="0 0 365.84421 339.02805"
   version="1.1"
   id="svg5"
   xmlns="http://www.w3.org/2000/svg"
   xmlns:svg="http://www.w3.org/2000/svg">
  <defs
     id="defs2" />
  <g
     id="layer2"
     transform="translate(50.546,50.546)"
     style="display:none">
    <rect
       style="fill:#ffffff;stroke:#003200;stroke-width:1.4082;stroke-linejoin:round"
       id="rect990"
       width="460.5899"
       height="435.27072"
       x="-105.50974"
       y="-111.34873" />
  </g>
  <g
     id="layer1"
     transform="translate(47.198288,42.994355)">
    <path
       style="fill:#deffde;fill-opacity:1;stroke:#003200;stroke-width:1.98002;stroke-linecap:butt;stroke-linejoin:miter;stroke-miterlimit:4;stroke-dasharray:none;stroke-opacity:1"
       d="M 90.641554,200.12914 C 78.690836,211.8105 69.338958,227.00377 55.483044,227.9678 41.62713,228.93183 23.267234,215.66684 22.809128,197.31347 22.351022,178.9601 39.795016,155.51989 37.908371,140.44386 36.021726,125.36784 14.804254,118.65664 7.4692697,102.29264 0.13428557,85.928644 6.6826668,59.91288 29.155304,56.904236 c 22.472637,-3.008645 60.866378,16.9892 74.023126,10.251367 13.15675,-6.737833 1.07509,-40.211512 12.49383,-52.573563 11.41873,-12.3620518 46.33632,-3.611686 64.2497,14.492136 17.91339,18.103822 18.82243,45.559418 28.60509,52.912864 9.78266,7.353446 28.43768,-5.394425 42.14409,2.823939 13.7064,8.218364 22.46245,37.401251 10.61893,50.079781 -11.84352,12.67852 -44.2862,8.85162 -59.36546,23.27908 -15.07926,14.42746 -12.79399,47.10758 -21.09466,66.39594 -8.30066,19.28836 -27.18684,25.18474 -37.14121,14.21038 -9.95436,-10.97436 -10.97621,-38.81966 -18.76185,-48.65852 -7.78564,-9.83886 -22.33462,-1.66986 -34.285336,10.0115 z"
       id="path11924" />
  </g>
</svg>
